<svg width="200" height="200" viewBox="0 0 200 200" fill="none" xmlns="http://www.w3.org/2000/svg">
<path d="M104.854 52.3472V98.1291H170.979" stroke="white" stroke-miterlimit="10"/>
<path d="M109.929 93.0329L122.173 74.4663L130.928 83.221L143.383 63.153L153.533 73.3033L168.632 53.1296" stroke="white" stroke-miterlimit="10"/>
<path d="M145.561 113.439H104.854V121.073H145.561V113.439Z" stroke="white" stroke-miterlimit="10"/>
<path d="M171 121.073H104.854V128.707H171V121.073Z" stroke="white" stroke-miterlimit="10"/>
<path d="M130.293 133.782H104.854V141.416H130.293V133.782Z" stroke="white" stroke-miterlimit="10"/>
<path d="M163.366 141.416H104.854V149.05H163.366V141.416Z" stroke="white" stroke-miterlimit="10"/>
<path d="M63.1534 123.611H47.8857V149.05H63.1534V123.611Z" stroke="white" stroke-miterlimit="10"/>
<path d="M93.6676 128.707H78.3999V149.05H93.6676V128.707Z" stroke="white" stroke-miterlimit="10"/>
<path d="M78.4 113.439H63.1323V149.05H78.4V113.439Z" stroke="white" stroke-miterlimit="10"/>
<path d="M94.7464 73.261C94.2635 67.2529 91.6577 61.6129 87.3956 57.3508C83.1335 53.0887 77.4935 50.4829 71.4854 50V67.9956C72.7416 68.3512 73.8864 69.0214 74.8114 69.9428C75.7365 70.8641 76.4113 72.0062 76.7719 73.261H94.7464Z" stroke="white" stroke-miterlimit="10"/>
<path d="M69.455 100.751C75.2446 100.738 80.8557 98.7462 85.3571 95.1053L72.5212 82.2694C71.5587 82.7098 70.5135 82.9405 69.455 82.9461C67.671 82.888 65.9645 82.2033 64.6353 81.012C63.306 79.8207 62.439 78.1992 62.1866 76.4321C61.9342 74.6651 62.3124 72.8657 63.255 71.3499C64.1975 69.8341 65.644 68.6988 67.3404 68.1436V50C64.008 50.1388 60.7356 50.9327 57.71 52.3362C54.6844 53.7398 51.9649 55.7255 49.7068 58.18C45.1462 63.1371 42.7416 69.7029 43.022 76.433C43.3025 83.163 46.2449 89.506 51.202 94.0666C56.1592 98.6272 62.725 101.032 69.455 100.751Z" stroke="white" stroke-miterlimit="10"/>
<path d="M88.4234 92.2927C92.0984 88.1842 94.3266 82.985 94.7673 77.4902H76.7717C76.5639 78.2468 76.2278 78.9621 75.7778 79.6049L88.4234 92.2927Z" stroke="white" stroke-miterlimit="10"/>
</svg>
